<?xml version="1.0" encoding="UTF-8" standalone="no"?>
<!DOCTYPE svg PUBLIC "-//W3C//DTD SVG 1.1//EN" "http://www.w3.org/Graphics/SVG/1.1/DTD/svg11.dtd">
<svg width="100%" height="100%" viewBox="0 0 1050 1050" version="1.1" xmlns="http://www.w3.org/2000/svg" xmlns:xlink="http://www.w3.org/1999/xlink" xml:space="preserve" xmlns:serif="http://www.serif.com/" style="fill-rule:evenodd;clip-rule:evenodd;stroke-linecap:round;stroke-linejoin:round;stroke-miterlimit:1.5;">
    <g transform="matrix(1,0,0,1,-15,-15)">
        <g transform="matrix(-1,-2.77556e-16,-2.77556e-16,1,1080,10)">
            <g id="head" transform="matrix(1,0,0,1,40,30)">
                <circle cx="500" cy="500" r="500" style="fill:none;stroke:black;stroke-width:50px;"/>
            </g>
        </g>
        <g transform="matrix(-1,-2.77556e-16,-2.77556e-16,1,1080,10)">
            <g id="little-eye" serif:id="little eye" transform="matrix(0.9375,0,0,0.9375,76.8847,59.375)">
                <circle cx="300" cy="390" r="80" style="fill:none;stroke:black;stroke-width:53.33px;"/>
            </g>
        </g>
        <g transform="matrix(-1,-2.77556e-16,-2.77556e-16,1,1080,10)">
            <g id="mouth" transform="matrix(0.9375,0,0,0.9375,258.75,374.375)">
                <circle cx="300" cy="390" r="80" style="fill:none;stroke:black;stroke-width:53.33px;"/>
            </g>
        </g>
        <g transform="matrix(-1,-2.77556e-16,-2.77556e-16,1,1080,10)">
            <g id="big-eye--mono-" serif:id="big eye (mono)" transform="matrix(0.466667,0.80829,-0.80829,0.466667,702.11,-371.884)">
                <circle cx="750" cy="430" r="150"/>
            </g>
        </g>
    </g>
</svg>
